<?xml version="1.0" encoding="utf-8"?>
<!-- Generator: Adobe Illustrator 24.1.2, SVG Export Plug-In . SVG Version: 6.00 Build 0)  -->
<svg version="1.1"
	 id="Слой_1" xmlns:cc="http://web.resource.org/cc/" xmlns:dc="http://purl.org/dc/elements/1.1/" xmlns:rdf="http://www.w3.org/1999/02/22-rdf-syntax-ns#"
	 xmlns="http://www.w3.org/2000/svg" xmlns:xlink="http://www.w3.org/1999/xlink" x="0px" y="0px" viewBox="0 0 58.3 58.3"
	 style="enable-background:new 0 0 58.3 58.3;" xml:space="preserve">
<style type="text/css">
	.st0{fill-rule:evenodd;clip-rule:evenodd;fill:#1E64FF;}
	.st1{fill:#1E64FF;}
</style>
<g id="Layer_x0020_1">
	<g id="_152222920">
		<path id="_152222248" class="st0" d="M24.2,22.5C18.7,25.6,27,41.2,33,37.8c1.1,1.8,4.5,7.7,5.5,9.6c-2.5,1.5-4.6,2.4-7.6,0.7
			C22.9,43.4,14,28,14.2,18.8c0.1-3.2,2-4.4,4.4-5.9C19.7,14.8,23.1,20.7,24.2,22.5L24.2,22.5z"/>
		<path id="_150519168" class="st0" d="M26.5,22.2c-0.6,0.3-1.3,0.1-1.7-0.5l-5.2-9c-0.3-0.6-0.1-1.3,0.5-1.7l2.7-1.6
			c0.6-0.3,1.3-0.1,1.7,0.5l5.2,9c0.3,0.6,0.1,1.3-0.5,1.7L26.5,22.2L26.5,22.2z"/>
		<path id="_226148072" class="st0" d="M40.7,46.9c-0.6,0.3-1.3,0.1-1.7-0.5l-5.2-9c-0.3-0.6-0.1-1.3,0.5-1.7l2.7-1.6
			c0.6-0.3,1.3-0.1,1.7,0.5l5.2,9c0.3,0.6,0.1,1.3-0.5,1.7L40.7,46.9L40.7,46.9z"/>
	</g>
	<path class="st1" d="M29.1,0L29.1,0L29.1,0c8.1,0,15.3,3.3,20.6,8.5c5.3,5.3,8.5,12.6,8.5,20.6h0v0h0c0,8-3.3,15.3-8.5,20.6
		c-5.3,5.3-12.6,8.5-20.6,8.5v0h0v0c-8,0-15.3-3.3-20.6-8.5C3.3,44.5,0,37.2,0,29.1h0v0h0c0-8,3.3-15.3,8.5-20.6
		C13.8,3.3,21.1,0,29.1,0L29.1,0C29.1,0,29.1,0,29.1,0z M29.1,3.5L29.1,3.5L29.1,3.5L29.1,3.5C22.1,3.5,15.6,6.4,11,11
		c-4.6,4.6-7.5,11.1-7.5,18.1h0v0h0c0,7.1,2.9,13.5,7.5,18.1c4.6,4.6,11.1,7.5,18.1,7.5v0h0v0c7.1,0,13.5-2.9,18.1-7.5
		c4.6-4.6,7.5-11.1,7.5-18.1h0v0h0c0-7.1-2.9-13.5-7.5-18.1C42.6,6.4,36.2,3.5,29.1,3.5z"/>
</g>
</svg>
