<?xml version="1.0" encoding="utf-8"?>
<!-- Generator: Adobe Illustrator 24.1.2, SVG Export Plug-In . SVG Version: 6.00 Build 0)  -->
<svg version="1.1"
	 id="svg3071" xmlns:cc="http://creativecommons.org/ns#" xmlns:dc="http://purl.org/dc/elements/1.1/" xmlns:inkscape="http://www.inkscape.org/namespaces/inkscape" xmlns:ns1="http://sozi.baierouge.fr" xmlns:rdf="http://www.w3.org/1999/02/22-rdf-syntax-ns#" xmlns:sodipodi="http://sodipodi.sourceforge.net/DTD/sodipodi-0.dtd" xmlns:svg="http://www.w3.org/2000/svg"
	 xmlns="http://www.w3.org/2000/svg" xmlns:xlink="http://www.w3.org/1999/xlink" x="0px" y="0px" viewBox="0 0 256 256"
	 style="enable-background:new 0 0 256 256;" xml:space="preserve">
<style type="text/css">
	.st0{fill:#1E64FF;}
</style>
<g id="layer1" transform="translate(-290.27 -334.66)">
	<path id="path3058-6" class="st0" d="M393.4,334.7c-26.4,0-52.8,10-72.9,30.1c-40.2,40.2-40.2,105.7,0,145.9
		c35.2,35.2,89.9,39.6,129.9,13l60.9,60.9c8,8,21,8,29,0c8-8,8-21,0-29l-60.9-60.9c26.5-40,22.1-94.7-13.1-129.9
		C446.2,344.7,419.8,334.7,393.4,334.7L393.4,334.7z M393.3,361.8c19.4,0,38.7,7.4,53.6,22.3c29.7,29.7,29.8,77.5,0,107.2
		c-29.7,29.7-77.5,29.7-107.2,0c-29.7-29.7-29.7-77.5,0-107.2C354.6,369.3,373.9,361.8,393.3,361.8L393.3,361.8z M338.7,461
		c-1.6,0.1-2.9,1.4-2.8,3.1c0,0.4,0.1,0.8,0.3,1.2c10.3,21.5,32.2,36.3,57.6,36.3c5.5,0,10.8-0.7,15.9-2c1.6-0.4,2.5-2,2.1-3.6
		c-0.3-1-1.1-1.8-2.2-2.1c-25.5-5.7-48.9-16.9-69-32.2C340,461.2,339.4,461,338.7,461L338.7,461z"/>
</g>
</svg>
